<svg width="360" height="119" viewBox="0 0 360 119" fill="none" xmlns="http://www.w3.org/2000/svg">
<g filter="url(#filter0_d_1134_19424)">
<rect x="-143" y="14" width="210" height="86" rx="8" fill="white"/>
<path d="M1 36C1 34.3431 2.34315 33 4 33H46C47.6569 33 49 34.3431 49 36V78C49 79.6569 47.6569 81 46 81H4C2.34315 81 1 79.6569 1 78V36Z" fill="#F4F1E4"/>
</g>
<g filter="url(#filter1_d_1134_19424)">
<rect x="75" y="14" width="210" height="86" rx="8" fill="white"/>
<path d="M93 35C93 33.3431 94.3431 32 96 32H117C118.657 32 120 33.3431 120 35V45C120 46.6569 118.657 48 117 48H96C94.3431 48 93 46.6569 93 45V35Z" fill="#F4F1E4"/>
<path d="M105.357 40.9385H104.337V40.4766H102.457V39.832H104.337V35.2988H105.357V40.9385ZM97.7896 38.8438C98.8781 38.8438 99.9058 38.8276 100.873 38.7954C101.843 38.7632 102.761 38.7005 103.628 38.6074L103.682 39.2627C102.887 39.3773 101.963 39.4614 100.91 39.5151V40.96H99.9004V39.5527C99.238 39.5706 98.6615 39.5796 98.1709 39.5796L97.4512 39.5742L97.333 38.8438H97.7896ZM98.0527 36.9102C98.0527 36.6201 98.1512 36.3659 98.3481 36.1475C98.5451 35.929 98.8244 35.7607 99.186 35.6426C99.5513 35.5208 99.9756 35.46 100.459 35.46C100.932 35.46 101.349 35.5208 101.71 35.6426C102.076 35.7607 102.359 35.929 102.559 36.1475C102.76 36.3659 102.862 36.6201 102.865 36.9102C102.862 37.2038 102.76 37.4598 102.559 37.6782C102.359 37.8931 102.077 38.0596 101.716 38.1777C101.354 38.2923 100.935 38.3496 100.459 38.3496C99.9756 38.3496 99.5513 38.2923 99.186 38.1777C98.8244 38.0596 98.5451 37.8931 98.3481 37.6782C98.1512 37.4598 98.0527 37.2038 98.0527 36.9102ZM98.7725 41.2607H105.357V43.334H99.8145V44.0752H105.647V44.8164H98.8154V42.6572H104.348V41.9697H98.7725V41.2607ZM99.0088 36.9102C99.0088 37.0605 99.0679 37.193 99.186 37.3076C99.3042 37.4186 99.4725 37.5063 99.6909 37.5708C99.9093 37.6317 100.165 37.6621 100.459 37.6621C100.749 37.6621 101.001 37.6317 101.216 37.5708C101.435 37.5063 101.603 37.4186 101.721 37.3076C101.839 37.193 101.898 37.0605 101.898 36.9102C101.898 36.7562 101.839 36.6219 101.721 36.5073C101.603 36.3927 101.435 36.305 101.216 36.2441C101.001 36.1797 100.749 36.1475 100.459 36.1475C100.165 36.1475 99.9093 36.1797 99.6909 36.2441C99.4725 36.305 99.3042 36.3927 99.186 36.5073C99.0679 36.6219 99.0088 36.7562 99.0088 36.9102ZM109.684 37.9199C109.684 38.4427 109.757 38.9601 109.904 39.4722C110.051 39.9806 110.269 40.4461 110.559 40.8687C110.849 41.2912 111.202 41.6296 111.618 41.8838L111.048 42.668C110.611 42.4066 110.237 42.0503 109.926 41.5991C109.618 41.1444 109.378 40.6287 109.206 40.0522C109.027 40.6789 108.771 41.2375 108.438 41.728C108.108 42.2186 107.715 42.6035 107.256 42.8828L106.622 42.1201C107.063 41.8551 107.439 41.5024 107.75 41.062C108.065 40.6216 108.302 40.1346 108.459 39.6011C108.62 39.064 108.699 38.5179 108.696 37.9629V36.1689H109.684V37.9199ZM110.576 38.6719H112.069V35.4707H113.036V44.4404H112.069V39.5205H110.576V38.6719ZM114.056 35.2881H115.034V44.9131H114.056V35.2881Z" fill="#B7AC8B"/>
<rect x="93" y="54" width="108" height="12" rx="3" fill="#F4F1E4"/>
<rect x="93" y="70" width="85" height="12" rx="3" fill="#F4F1E4"/>
<path d="M219 36C219 34.3431 220.343 33 222 33H264C265.657 33 267 34.3431 267 36V78C267 79.6569 265.657 81 264 81H222C220.343 81 219 79.6569 219 78V36Z" fill="#F4F1E4"/>
</g>
<rect x="293" y="14" width="210" height="86" rx="8" fill="white"/>
<path d="M311 35C311 33.3431 312.343 32 314 32H335C336.657 32 338 33.3431 338 35V45C338 46.6569 336.657 48 335 48H314C312.343 48 311 46.6569 311 45V35Z" fill="#F4F1E4"/>
<path d="M323.379 42.3457H322.358V38.7256H320.521V37.8984H322.358V35.2988H323.379V42.3457ZM315.365 40.3369C315.849 40.1722 316.271 39.9323 316.633 39.6172C316.998 39.2985 317.277 38.9333 317.471 38.5215C317.664 38.1097 317.761 37.6836 317.761 37.2432V36.8672H315.677V36.0293H320.865V36.8672H318.803V37.2432C318.799 37.6442 318.89 38.0363 319.077 38.4194C319.266 38.8026 319.537 39.1445 319.888 39.4453C320.239 39.7461 320.65 39.9753 321.123 40.1328L320.597 40.9492C320.067 40.763 319.605 40.4873 319.211 40.1221C318.817 39.7568 318.513 39.3307 318.298 38.8438C318.087 39.3809 317.773 39.8517 317.358 40.2563C316.946 40.661 316.457 40.9635 315.892 41.1641L315.365 40.3369ZM317.127 41.7119H318.147V43.8818H323.637V44.709H317.127V41.7119ZM327.684 37.9199C327.684 38.4427 327.757 38.9601 327.904 39.4722C328.051 39.9806 328.269 40.4461 328.559 40.8687C328.849 41.2912 329.202 41.6296 329.618 41.8838L329.048 42.668C328.611 42.4066 328.237 42.0503 327.926 41.5991C327.618 41.1444 327.378 40.6287 327.206 40.0522C327.027 40.6789 326.771 41.2375 326.438 41.728C326.108 42.2186 325.715 42.6035 325.256 42.8828L324.622 42.1201C325.063 41.8551 325.439 41.5024 325.75 41.062C326.065 40.6216 326.302 40.1346 326.459 39.6011C326.62 39.064 326.699 38.5179 326.696 37.9629V36.1689H327.684V37.9199ZM328.576 38.6719H330.069V35.4707H331.036V44.4404H330.069V39.5205H328.576V38.6719ZM332.056 35.2881H333.034V44.9131H332.056V35.2881Z" fill="#B7AC8B"/>
<rect x="311" y="54" width="108" height="12" rx="3" fill="#F4F1E4"/>
<rect x="311" y="70" width="85" height="12" rx="3" fill="#F4F1E4"/>
<defs>
<filter id="filter0_d_1134_19424" x="-155" y="0" width="234" height="110" filterUnits="userSpaceOnUse" color-interpolation-filters="sRGB">
<feFlood flood-opacity="0" result="BackgroundImageFix"/>
<feColorMatrix in="SourceAlpha" type="matrix" values="0 0 0 0 0 0 0 0 0 0 0 0 0 0 0 0 0 0 127 0" result="hardAlpha"/>
<feOffset dy="-2"/>
<feGaussianBlur stdDeviation="6"/>
<feComposite in2="hardAlpha" operator="out"/>
<feColorMatrix type="matrix" values="0 0 0 0 0.890005 0 0 0 0 0.871486 0 0 0 0 0.815927 0 0 0 0.8 0"/>
<feBlend mode="normal" in2="BackgroundImageFix" result="effect1_dropShadow_1134_19424"/>
<feBlend mode="normal" in="SourceGraphic" in2="effect1_dropShadow_1134_19424" result="shape"/>
</filter>
<filter id="filter1_d_1134_19424" x="63" y="0" width="234" height="110" filterUnits="userSpaceOnUse" color-interpolation-filters="sRGB">
<feFlood flood-opacity="0" result="BackgroundImageFix"/>
<feColorMatrix in="SourceAlpha" type="matrix" values="0 0 0 0 0 0 0 0 0 0 0 0 0 0 0 0 0 0 127 0" result="hardAlpha"/>
<feOffset dy="-2"/>
<feGaussianBlur stdDeviation="6"/>
<feComposite in2="hardAlpha" operator="out"/>
<feColorMatrix type="matrix" values="0 0 0 0 0.890005 0 0 0 0 0.871486 0 0 0 0 0.815927 0 0 0 0.8 0"/>
<feBlend mode="normal" in2="BackgroundImageFix" result="effect1_dropShadow_1134_19424"/>
<feBlend mode="normal" in="SourceGraphic" in2="effect1_dropShadow_1134_19424" result="shape"/>
</filter>
</defs>
</svg>
