<svg width="80" height="80" viewBox="0 0 80 80" fill="none" xmlns="http://www.w3.org/2000/svg">
<path fill-rule="evenodd" clip-rule="evenodd" d="M39.999 71.999C57.6721 71.999 71.999 57.6721 71.999 39.999C71.999 22.3259 57.6721 7.99902 39.999 7.99902C22.3259 7.99902 7.99902 22.3259 7.99902 39.999C7.99902 57.6721 22.3259 71.999 39.999 71.999ZM54.8274 34.8274C56.3895 33.2654 56.3895 30.7327 54.8274 29.1706C53.2654 27.6085 50.7327 27.6085 49.1706 29.1706L35.999 42.3422L30.8274 37.1706C29.2654 35.6085 26.7327 35.6085 25.1706 37.1706C23.6085 38.7327 23.6085 41.2654 25.1706 42.8274L33.1706 50.8274C34.7327 52.3895 37.2654 52.3895 38.8274 50.8274L54.8274 34.8274Z" fill="#23262A"/>
</svg>
