<svg width="20" height="20" viewBox="0 0 20 20" fill="none" xmlns="http://www.w3.org/2000/svg">
<path d="M3.33325 13.3337C3.33325 14.067 3.65825 14.7253 4.16659 15.1837V16.667C4.16659 17.1253 4.54159 17.5003 4.99992 17.5003H5.83325C6.29159 17.5003 6.66659 17.1253 6.66659 16.667V15.8337H13.3333V16.667C13.3333 17.1253 13.7083 17.5003 14.1666 17.5003H14.9999C15.4583 17.5003 15.8333 17.1253 15.8333 16.667V15.1837C16.3416 14.7253 16.6666 14.067 16.6666 13.3337V5.00033C16.6666 2.08366 13.6833 1.66699 9.99992 1.66699C6.31659 1.66699 3.33325 2.08366 3.33325 5.00033V13.3337ZM6.24992 14.167C5.55825 14.167 4.99992 13.6087 4.99992 12.917C4.99992 12.2253 5.55825 11.667 6.24992 11.667C6.94159 11.667 7.49992 12.2253 7.49992 12.917C7.49992 13.6087 6.94159 14.167 6.24992 14.167ZM13.7499 14.167C13.0583 14.167 12.4999 13.6087 12.4999 12.917C12.4999 12.2253 13.0583 11.667 13.7499 11.667C14.4416 11.667 14.9999 12.2253 14.9999 12.917C14.9999 13.6087 14.4416 14.167 13.7499 14.167ZM14.9999 9.16699H4.99992V5.00033H14.9999V9.16699Z" fill="#94896A"/>
</svg>
