<svg width="12" height="12" viewBox="0 0 12 12" fill="none" xmlns="http://www.w3.org/2000/svg">
<path id="Vector" fill-rule="evenodd" clip-rule="evenodd" d="M3.25 0.299805C3.06766 0.299805 2.8928 0.374871 2.76386 0.508491C2.63493 0.642111 2.5625 0.823338 2.5625 1.0123V1.7248H1.875C1.51033 1.7248 1.16059 1.87494 0.902728 2.14218C0.644866 2.40942 0.5 2.77187 0.5 3.1498V10.2748C0.5 10.6527 0.644866 11.0152 0.902728 11.2824C1.16059 11.5497 1.51033 11.6998 1.875 11.6998H10.125C10.4897 11.6998 10.8394 11.5497 11.0973 11.2824C11.3551 11.0152 11.5 10.6527 11.5 10.2748V3.1498C11.5 2.77187 11.3551 2.40942 11.0973 2.14218C10.8394 1.87494 10.4897 1.7248 10.125 1.7248H9.4375V1.0123C9.4375 0.823338 9.36507 0.642111 9.23614 0.508491C9.1072 0.374871 8.93234 0.299805 8.75 0.299805C8.56766 0.299805 8.3928 0.374871 8.26386 0.508491C8.13493 0.642111 8.0625 0.823338 8.0625 1.0123V1.7248H3.9375V1.0123C3.9375 0.823338 3.86507 0.642111 3.73614 0.508491C3.6072 0.374871 3.43234 0.299805 3.25 0.299805ZM3.25 3.8623C3.06766 3.8623 2.8928 3.93737 2.76386 4.07099C2.63493 4.20461 2.5625 4.38584 2.5625 4.5748C2.5625 4.76377 2.63493 4.945 2.76386 5.07862C2.8928 5.21224 3.06766 5.2873 3.25 5.2873H8.75C8.93234 5.2873 9.1072 5.21224 9.23614 5.07862C9.36507 4.945 9.4375 4.76377 9.4375 4.5748C9.4375 4.38584 9.36507 4.20461 9.23614 4.07099C9.1072 3.93737 8.93234 3.8623 8.75 3.8623H3.25Z" fill="#9099A5"/>
</svg>
