<svg viewBox="0 0 16 16" fill="currentColor" xmlns="http://www.w3.org/2000/svg">
<path fill-rule="evenodd" clip-rule="evenodd" d="M5.25 2.2998C5.06766 2.2998 4.8928 2.37487 4.76386 2.50849C4.63493 2.64211 4.5625 2.82334 4.5625 3.0123V3.7248H3.875C3.51033 3.7248 3.16059 3.87494 2.90273 4.14218C2.64487 4.40942 2.5 4.77187 2.5 5.1498V12.2748C2.5 12.6527 2.64487 13.0152 2.90273 13.2824C3.16059 13.5497 3.51033 13.6998 3.875 13.6998H12.125C12.4897 13.6998 12.8394 13.5497 13.0973 13.2824C13.3551 13.0152 13.5 12.6527 13.5 12.2748V5.1498C13.5 4.77187 13.3551 4.40942 13.0973 4.14218C12.8394 3.87494 12.4897 3.7248 12.125 3.7248H11.4375V3.0123C11.4375 2.82334 11.3651 2.64211 11.2361 2.50849C11.1072 2.37487 10.9323 2.2998 10.75 2.2998C10.5677 2.2998 10.3928 2.37487 10.2639 2.50849C10.1349 2.64211 10.0625 2.82334 10.0625 3.0123V3.7248H5.9375V3.0123C5.9375 2.82334 5.86507 2.64211 5.73614 2.50849C5.6072 2.37487 5.43234 2.2998 5.25 2.2998ZM5.25 5.8623C5.06766 5.8623 4.8928 5.93737 4.76386 6.07099C4.63493 6.20461 4.5625 6.38584 4.5625 6.5748C4.5625 6.76377 4.63493 6.945 4.76386 7.07862C4.8928 7.21224 5.06766 7.2873 5.25 7.2873H10.75C10.9323 7.2873 11.1072 7.21224 11.2361 7.07862C11.3651 6.945 11.4375 6.76377 11.4375 6.5748C11.4375 6.38584 11.3651 6.20461 11.2361 6.07099C11.1072 5.93737 10.9323 5.8623 10.75 5.8623H5.25Z" fill="currentColor"/>
</svg>
