<svg width="10" height="12" viewBox="0 0 10 12" fill="none" xmlns="http://www.w3.org/2000/svg">
<path fill-rule="evenodd" clip-rule="evenodd" d="M2.5 0.899902C2.33424 0.899902 2.17527 0.967067 2.05806 1.08662C1.94085 1.20618 1.875 1.36833 1.875 1.5374V2.1749H1.25C0.918479 2.1749 0.600537 2.30923 0.366116 2.54834C0.131696 2.78745 0 3.11175 0 3.4499V9.8249C0 10.1631 0.131696 10.4874 0.366116 10.7265C0.600537 10.9656 0.918479 11.0999 1.25 11.0999H8.75C9.08152 11.0999 9.39946 10.9656 9.63388 10.7265C9.8683 10.4874 10 10.1631 10 9.8249V3.4499C10 3.11175 9.8683 2.78745 9.63388 2.54834C9.39946 2.30923 9.08152 2.1749 8.75 2.1749H8.125V1.5374C8.125 1.36833 8.05915 1.20618 7.94194 1.08662C7.82473 0.967067 7.66576 0.899902 7.5 0.899902C7.33424 0.899902 7.17527 0.967067 7.05806 1.08662C6.94085 1.20618 6.875 1.36833 6.875 1.5374V2.1749H3.125V1.5374C3.125 1.36833 3.05915 1.20618 2.94194 1.08662C2.82473 0.967067 2.66576 0.899902 2.5 0.899902ZM2.5 4.0874C2.33424 4.0874 2.17527 4.15457 2.05806 4.27412C1.94085 4.39368 1.875 4.55583 1.875 4.7249C1.875 4.89398 1.94085 5.05613 2.05806 5.17568C2.17527 5.29524 2.33424 5.3624 2.5 5.3624H7.5C7.66576 5.3624 7.82473 5.29524 7.94194 5.17568C8.05915 5.05613 8.125 4.89398 8.125 4.7249C8.125 4.55583 8.05915 4.39368 7.94194 4.27412C7.82473 4.15457 7.66576 4.0874 7.5 4.0874H2.5Z" fill="#94896A"/>
</svg>
