<svg width="20" height="20" viewBox="0 0 20 20" fill="none" xmlns="http://www.w3.org/2000/svg">
<path d="M9.99999 4.16671L9.99999 4.17504M9.99999 10L9.99999 10.0084M9.99999 15.8334L9.99999 15.8417M9.99999 5.00004C9.53976 5.00004 9.16666 4.62694 9.16666 4.16671C9.16666 3.70647 9.53976 3.33337 9.99999 3.33337C10.4602 3.33337 10.8333 3.70647 10.8333 4.16671C10.8333 4.62694 10.4602 5.00004 9.99999 5.00004ZM9.99999 10.8334C9.53976 10.8334 9.16666 10.4603 9.16666 10C9.16666 9.5398 9.53976 9.16671 9.99999 9.16671C10.4602 9.16671 10.8333 9.5398 10.8333 10C10.8333 10.4603 10.4602 10.8334 9.99999 10.8334ZM9.99999 16.6667C9.53976 16.6667 9.16666 16.2936 9.16666 15.8334C9.16666 15.3731 9.53976 15 9.99999 15C10.4602 15 10.8333 15.3731 10.8333 15.8334C10.8333 16.2936 10.4602 16.6667 9.99999 16.6667Z" stroke="#B5C1D2" stroke-width="1.4" stroke-linecap="round" stroke-linejoin="round"/>
</svg>
