<svg width="68" height="68" viewBox="0 0 68 68" fill="none" xmlns="http://www.w3.org/2000/svg">
<path d="M42.5 5.66669H17C15.4971 5.66669 14.0558 6.26371 12.9931 7.32642C11.9304 8.38912 11.3334 9.83046 11.3334 11.3334V56.6667C11.3334 58.1696 11.9304 59.6109 12.9931 60.6736C14.0558 61.7363 15.4971 62.3334 17 62.3334H51C52.5029 62.3334 53.9443 61.7363 55.007 60.6736C56.0697 59.6109 56.6667 58.1696 56.6667 56.6667V19.8334L42.5 5.66669Z" fill="white"/>
<path d="M39.6667 5.66669V17C39.6667 18.5029 40.2637 19.9443 41.3264 21.007C42.3891 22.0697 43.8305 22.6667 45.3334 22.6667H56.6667" fill="white"/>
<path d="M39.6667 5.66669V17C39.6667 18.5029 40.2637 19.9443 41.3264 21.007C42.3891 22.0697 43.8305 22.6667 45.3334 22.6667H56.6667M42.5 5.66669H17C15.4971 5.66669 14.0558 6.26371 12.9931 7.32642C11.9304 8.38912 11.3334 9.83046 11.3334 11.3334V56.6667C11.3334 58.1696 11.9304 59.6109 12.9931 60.6736C14.0558 61.7363 15.4971 62.3334 17 62.3334H51C52.5029 62.3334 53.9443 61.7363 55.007 60.6736C56.0697 59.6109 56.6667 58.1696 56.6667 56.6667V19.8334L42.5 5.66669Z" stroke="#94896A" stroke-width="3.6" stroke-linecap="round" stroke-linejoin="round"/>
<path d="M31.3613 42.8975C31.3613 41.71 31.4551 40.7516 31.6426 40.0225C31.8301 39.2829 32.1009 38.6943 32.4551 38.2568C32.8197 37.8193 33.3092 37.3975 33.9238 36.9912C34.7572 36.4495 35.3717 35.9652 35.7676 35.5381C36.1738 35.111 36.3822 34.6058 36.3926 34.0225C36.3822 33.4495 36.1738 32.986 35.7676 32.6318C35.3717 32.2673 34.8822 32.085 34.2988 32.085C33.8926 32.085 33.5124 32.1787 33.1582 32.3662C32.804 32.5537 32.5228 32.8193 32.3145 33.1631C32.1061 33.5068 31.9967 33.8975 31.9863 34.335H26.4863C26.5072 32.7933 26.8665 31.512 27.5645 30.4912C28.2624 29.4704 29.1947 28.7152 30.3613 28.2256C31.5384 27.736 32.8613 27.4912 34.3301 27.4912C35.9134 27.4912 37.3145 27.7256 38.5332 28.1943C39.7624 28.6631 40.7207 29.3662 41.4082 30.3037C42.1061 31.2308 42.4551 32.3662 42.4551 33.71C42.4551 34.9704 42.1478 36.0329 41.5332 36.8975C40.9186 37.762 40.028 38.5329 38.8613 39.21C37.9967 39.7308 37.3717 40.262 36.9863 40.8037C36.6113 41.335 36.4238 42.0329 36.4238 42.8975V43.3975H31.3613V42.8975ZM30.9238 47.7412C30.9238 47.1995 31.0592 46.6995 31.3301 46.2412C31.6009 45.7829 31.9655 45.4183 32.4238 45.1475C32.8926 44.8766 33.403 44.7412 33.9551 44.7412C34.4759 44.7412 34.9655 44.8766 35.4238 45.1475C35.8926 45.4183 36.2676 45.7829 36.5488 46.2412C36.8405 46.6995 36.9863 47.1995 36.9863 47.7412C36.9863 48.2933 36.8457 48.8037 36.5645 49.2725C36.2832 49.7308 35.9082 50.0954 35.4395 50.3662C34.9707 50.637 34.4759 50.7725 33.9551 50.7725C33.403 50.7725 32.8926 50.637 32.4238 50.3662C31.9655 50.0954 31.6009 49.7308 31.3301 49.2725C31.0592 48.8037 30.9238 48.2933 30.9238 47.7412Z" fill="#94896A"/>
</svg>
