<svg viewBox="0 0 64 64" fill="none" xmlns="http://www.w3.org/2000/svg">
<path d="M34.2625 7.3378C33.6624 6.73789 32.8487 6.40088 32.0001 6.40088C31.1516 6.40088 30.3378 6.73789 29.7377 7.3378L7.33773 29.7378C6.75482 30.3413 6.43228 31.1496 6.43957 31.9887C6.44687 32.8277 6.78341 33.6303 7.37671 34.2236C7.97002 34.8169 8.77262 35.1535 9.61165 35.1607C10.4507 35.168 11.259 34.8455 11.8625 34.2626L12.8001 33.325V54.4002C12.8001 55.2489 13.1373 56.0628 13.7374 56.6629C14.3375 57.2631 15.1514 57.6002 16.0001 57.6002H22.4001C23.2488 57.6002 24.0628 57.2631 24.6629 56.6629C25.263 56.0628 25.6001 55.2489 25.6001 54.4002V48.0002C25.6001 47.1515 25.9373 46.3376 26.5374 45.7375C27.1375 45.1373 27.9514 44.8002 28.8001 44.8002H35.2001C36.0488 44.8002 36.8628 45.1373 37.4629 45.7375C38.063 46.3376 38.4001 47.1515 38.4001 48.0002V54.4002C38.4001 55.2489 38.7373 56.0628 39.3374 56.6629C39.9375 57.2631 40.7514 57.6002 41.6001 57.6002H48.0001C48.8488 57.6002 49.6628 57.2631 50.2629 56.6629C50.863 56.0628 51.2001 55.2489 51.2001 54.4002V33.325L52.1377 34.2626C52.7413 34.8455 53.5496 35.168 54.3886 35.1607C55.2276 35.1535 56.0302 34.8169 56.6235 34.2236C57.2169 33.6303 57.5534 32.8277 57.5607 31.9887C57.568 31.1496 57.2454 30.3413 56.6625 29.7378L34.2625 7.3378V7.3378Z" fill="#FFFCF1"/>
</svg>
