<svg width="25" height="24" viewBox="0 0 25 24" fill="none" xmlns="http://www.w3.org/2000/svg">
<path d="M15.666 20.9995V12.9995C15.666 12.7343 15.5607 12.4799 15.3731 12.2924C15.1856 12.1049 14.9312 11.9995 14.666 11.9995H10.666C10.4008 11.9995 10.1464 12.1049 9.95891 12.2924C9.77137 12.4799 9.66602 12.7343 9.66602 12.9995V20.9995M3.66602 9.99948C3.66595 9.70855 3.72935 9.4211 3.8518 9.1572C3.97426 8.89329 4.15281 8.65928 4.37502 8.47148L11.375 2.47248C11.736 2.16739 12.1934 2 12.666 2C13.1387 2 13.596 2.16739 13.957 2.47248L20.957 8.47148C21.1792 8.65928 21.3578 8.89329 21.4802 9.1572C21.6027 9.4211 21.6661 9.70855 21.666 9.99948V18.9995C21.666 19.5299 21.4553 20.0386 21.0802 20.4137C20.7052 20.7888 20.1964 20.9995 19.666 20.9995H5.66602C5.13558 20.9995 4.62687 20.7888 4.2518 20.4137C3.87673 20.0386 3.66602 19.5299 3.66602 18.9995V9.99948Z" stroke="#191B1E" stroke-width="2" stroke-linecap="round" stroke-linejoin="round"/>
</svg>
