<svg viewBox="0 0 168 42" fill="none" xmlns="http://www.w3.org/2000/svg">
<path d="M0.699219 10.8262C0.699219 4.52734 5.28906 0.669922 11.5879 0.669922H12.9062C19.2051 0.669922 23.7949 4.52734 23.7949 10.8262V29.8691C23.7949 36.168 19.2051 40.0254 12.9062 40.0254H11.5879C5.28906 40.0254 0.699219 36.168 0.699219 29.8691V10.8262ZM8.41406 29.7227C8.41406 31.9688 9.92773 33.1895 11.8809 33.1895H12.6133C14.5664 33.1895 16.0801 31.9688 16.0801 29.7227V10.9727C16.0801 8.72656 14.5664 7.50586 12.6133 7.50586H11.8809C9.92773 7.50586 8.41406 8.72656 8.41406 10.9727V29.7227ZM29.2637 41.1973V0.328125H37.0762V41.1973H29.2637ZM40.8262 17.5156C46.6855 14.7812 51.0312 12.2422 51.0312 8.28711V7.65234H42.6328V0.914062H66.8027V7.65234H58.5996V8.58008C58.5996 9.3125 58.502 9.99609 58.4043 10.6309C60.9434 12.7793 65.2402 15.0254 69.3418 16.3926L65.6797 22.6426C61.3828 20.9824 57.5254 18.9316 54.9863 16.6855C52.3984 19.3711 48.7363 21.5684 45.0742 23.4238L40.8262 17.5156ZM45.5625 41.1973V24.4004H53.375V26.5977H71.6855V24.4004H79.498V41.1973H45.5625ZM53.375 35.0449H71.6855V32.5547H53.375V35.0449ZM71.6855 22.3008V0.328125H79.498V22.3008H71.6855ZM85.543 10.8262C85.543 4.52734 90.1328 0.669922 96.4316 0.669922H97.75C104.049 0.669922 108.639 4.52734 108.639 10.8262V29.8691C108.639 36.168 104.049 40.0254 97.75 40.0254H96.4316C90.1328 40.0254 85.543 36.168 85.543 29.8691V10.8262ZM93.2578 29.7227C93.2578 31.9688 94.7715 33.1895 96.7246 33.1895H97.457C99.4102 33.1895 100.924 31.9688 100.924 29.7227V10.9727C100.924 8.72656 99.4102 7.50586 97.457 7.50586H96.7246C94.7715 7.50586 93.2578 8.72656 93.2578 10.9727V29.7227ZM114.107 41.1973V0.328125H121.92V41.1973H114.107ZM127.721 10.8262C127.721 4.52734 132.311 0.669922 138.609 0.669922H139.928C146.227 0.669922 150.816 4.52734 150.816 10.8262V29.8691C150.816 36.168 146.227 40.0254 139.928 40.0254H138.609C132.311 40.0254 127.721 36.168 127.721 29.8691V10.8262ZM135.436 29.7227C135.436 31.9688 136.949 33.1895 138.902 33.1895H139.635C141.588 33.1895 143.102 31.9688 143.102 29.7227V10.9727C143.102 8.72656 141.588 7.50586 139.635 7.50586H138.902C136.949 7.50586 135.436 8.72656 135.436 10.9727V29.7227ZM154.771 41.1973V0.328125H162.584V8.9707H167.564V15.416H162.584V24.2539H167.564V30.6992H162.584V41.1973H154.771Z" fill="#23262A"/>
</svg>
