<svg width="16" height="16" viewBox="0 0 16 16" fill="none" xmlns="http://www.w3.org/2000/svg">
<path d="M8.00002 2.74998V2.75748M8.00002 7.99984V8.00734M8.00002 13.2497V13.2572M8.00002 3.49996C8.19893 3.49996 8.38969 3.42094 8.53034 3.2803C8.67098 3.13965 8.75 2.94889 8.75 2.74998C8.75 2.55107 8.67098 2.36031 8.53034 2.21966C8.38969 2.07902 8.19893 2 8.00002 2C7.80111 2 7.61035 2.07902 7.4697 2.21966C7.32906 2.36031 7.25004 2.55107 7.25004 2.74998C7.25004 2.94889 7.32906 3.13965 7.4697 3.2803C7.61035 3.42094 7.80111 3.49996 8.00002 3.49996ZM8.00002 8.74982C8.19893 8.74982 8.38969 8.6708 8.53034 8.53015C8.67098 8.3895 8.75 8.19874 8.75 7.99984C8.75 7.80093 8.67098 7.61017 8.53034 7.46952C8.38969 7.32887 8.19893 7.24986 8.00002 7.24986C7.80111 7.24986 7.61035 7.32887 7.4697 7.46952C7.32906 7.61017 7.25004 7.80093 7.25004 7.99984C7.25004 8.19874 7.32906 8.3895 7.4697 8.53015C7.61035 8.6708 7.80111 8.74982 8.00002 8.74982ZM8.00002 13.9997C8.19893 13.9997 8.38969 13.9207 8.53034 13.78C8.67098 13.6394 8.75 13.4486 8.75 13.2497C8.75 13.0508 8.67098 12.86 8.53034 12.7194C8.38969 12.5787 8.19893 12.4997 8.00002 12.4997C7.80111 12.4997 7.61035 12.5787 7.4697 12.7194C7.32906 12.86 7.25004 13.0508 7.25004 13.2497C7.25004 13.4486 7.32906 13.6394 7.4697 13.78C7.61035 13.9207 7.80111 13.9997 8.00002 13.9997Z" stroke="#B5C1D2" stroke-width="1.4" stroke-linecap="round" stroke-linejoin="round"/>
</svg>
