<svg width="24" height="24" viewBox="0 0 24 24" fill="currentColor" xmlns="http://www.w3.org/2000/svg">
<path d="M12.0004 6.16659V6.17492M12.0004 11.9999V12.0083M12.0004 17.8333V17.8416M12.0004 6.99992C11.5401 6.99992 11.167 6.62682 11.167 6.16659C11.167 5.70635 11.5401 5.33325 12.0004 5.33325C12.4606 5.33325 12.8337 5.70635 12.8337 6.16659C12.8337 6.62682 12.4606 6.99992 12.0004 6.99992ZM12.0004 12.8333C11.5401 12.8333 11.167 12.4602 11.167 11.9999C11.167 11.5397 11.5401 11.1666 12.0004 11.1666C12.4606 11.1666 12.8337 11.5397 12.8337 11.9999C12.8337 12.4602 12.4606 12.8333 12.0004 12.8333ZM12.0004 18.6666C11.5401 18.6666 11.167 18.2935 11.167 17.8333C11.167 17.373 11.5401 16.9999 12.0004 16.9999C12.4606 16.9999 12.8337 17.373 12.8337 17.8333C12.8337 18.2935 12.4606 18.6666 12.0004 18.6666Z" stroke="current" fill="current" stroke-width="1.4" stroke-linecap="round" stroke-linejoin="round"/>
</svg>
