<svg width="28" height="28" viewBox="0 0 28 28" fill="none" xmlns="http://www.w3.org/2000/svg">
<rect width="28" height="28" rx="6" fill="#C9BFA1"/>
<path d="M14.5656 7.83482C14.4156 7.68484 14.2122 7.60059 14 7.60059C13.7879 7.60059 13.5845 7.68484 13.4344 7.83482L7.83443 13.4348C7.68871 13.5857 7.60807 13.7878 7.60989 13.9975C7.61172 14.2073 7.69585 14.4079 7.84418 14.5563C7.9925 14.7046 8.19315 14.7887 8.40291 14.7906C8.61267 14.7924 8.81475 14.7117 8.96563 14.566L9.20003 14.3316V19.6004C9.20003 19.8126 9.28432 20.0161 9.43435 20.1661C9.58438 20.3161 9.78786 20.4004 10 20.4004H11.6C11.8122 20.4004 12.0157 20.3161 12.1657 20.1661C12.3157 20.0161 12.4 19.8126 12.4 19.6004V18.0004C12.4 17.7882 12.4843 17.5848 12.6343 17.4347C12.7844 17.2847 12.9879 17.2004 13.2 17.2004H14.8C15.0122 17.2004 15.2157 17.2847 15.3657 17.4347C15.5157 17.5848 15.6 17.7882 15.6 18.0004V19.6004C15.6 19.8126 15.6843 20.0161 15.8343 20.1661C15.9844 20.3161 16.1879 20.4004 16.4 20.4004H18C18.2122 20.4004 18.4157 20.3161 18.5657 20.1661C18.7157 20.0161 18.8 19.8126 18.8 19.6004V14.3316L19.0344 14.566C19.1853 14.7117 19.3874 14.7924 19.5972 14.7906C19.8069 14.7887 20.0076 14.7046 20.1559 14.5563C20.3042 14.4079 20.3884 14.2073 20.3902 13.9975C20.392 13.7878 20.3114 13.5857 20.1656 13.4348L14.5656 7.83482Z" fill="#F6F5F2"/>
</svg>
