<svg width="24" height="24" viewBox="0 0 24 24" fill="none" xmlns="http://www.w3.org/2000/svg">
<path d="M18 18L13.6667 13.6667M15.1111 10.0556C15.1111 10.7195 14.9803 11.3769 14.7263 11.9902C14.4722 12.6036 14.0998 13.1609 13.6304 13.6304C13.1609 14.0998 12.6036 14.4722 11.9902 14.7263C11.3769 14.9803 10.7195 15.1111 10.0556 15.1111C9.39165 15.1111 8.73425 14.9803 8.12088 14.7263C7.50751 14.4722 6.95019 14.0998 6.48074 13.6304C6.01129 13.1609 5.6389 12.6036 5.38483 11.9902C5.13077 11.3769 5 10.7195 5 10.0556C5 8.71474 5.53264 7.42884 6.48074 6.48074C7.42884 5.53264 8.71474 5 10.0556 5C11.3964 5 12.6823 5.53264 13.6304 6.48074C14.5785 7.42884 15.1111 8.71474 15.1111 10.0556Z" stroke="#41454A" stroke-width="2" stroke-linecap="round" stroke-linejoin="round"/>
</svg>
