<svg width="15" height="15" viewBox="0 0 15 15" fill="none" xmlns="http://www.w3.org/2000/svg">
<path d="M14 14L9.66667 9.66667M11.1111 6.05556C11.1111 6.71946 10.9803 7.37686 10.7263 7.99023C10.4722 8.6036 10.0998 9.16092 9.63037 9.63037C9.16092 10.0998 8.6036 10.4722 7.99023 10.7263C7.37686 10.9803 6.71946 11.1111 6.05556 11.1111C5.39165 11.1111 4.73425 10.9803 4.12088 10.7263C3.50751 10.4722 2.95019 10.0998 2.48074 9.63037C2.01129 9.16092 1.6389 8.6036 1.38483 7.99023C1.13077 7.37686 1 6.71946 1 6.05556C1 4.71474 1.53264 3.42884 2.48074 2.48074C3.42884 1.53264 4.71474 1 6.05556 1C7.39637 1 8.68227 1.53264 9.63037 2.48074C10.5785 3.42884 11.1111 4.71474 11.1111 6.05556Z" stroke="#41454A" stroke-width="2" stroke-linecap="round" stroke-linejoin="round"/>
</svg>
