<svg width="20" height="20" viewBox="0 0 20 20" fill="none" xmlns="http://www.w3.org/2000/svg">
<path d="M9.99992 1.66699C6.31659 1.66699 3.33325 2.08366 3.33325 5.00033V12.917C3.33325 14.5253 4.64159 15.8337 6.24992 15.8337L4.99992 17.0837V17.5003H14.9999V17.0837L13.7499 15.8337C15.3583 15.8337 16.6666 14.5253 16.6666 12.917V5.00033C16.6666 2.08366 13.6833 1.66699 9.99992 1.66699ZM6.24992 14.167C5.55825 14.167 4.99992 13.6087 4.99992 12.917C4.99992 12.2253 5.55825 11.667 6.24992 11.667C6.94159 11.667 7.49992 12.2253 7.49992 12.917C7.49992 13.6087 6.94159 14.167 6.24992 14.167ZM9.16658 9.16699H4.99992V5.00033H9.16658V9.16699ZM13.7499 14.167C13.0583 14.167 12.4999 13.6087 12.4999 12.917C12.4999 12.2253 13.0583 11.667 13.7499 11.667C14.4416 11.667 14.9999 12.2253 14.9999 12.917C14.9999 13.6087 14.4416 14.167 13.7499 14.167ZM14.9999 9.16699H10.8333V5.00033H14.9999V9.16699Z" fill="current"/>
</svg>
