<svg xmlns="http://www.w3.org/2000/svg" width="24" height="24" viewBox="0 0 24 24" fill="none">
  <path fill-rule="evenodd" clip-rule="evenodd" d="M4.33096 4.33071C4.83864 3.82303 5.66175 3.82303 6.16943 4.33071L12.0002 10.1615L17.8309 4.33071C18.3386 3.82303 19.1617 3.82303 19.6694 4.33071C20.1771 4.83839 20.1771 5.66151 19.6694 6.16919L13.8387 12L19.6694 17.8307C20.1771 18.3384 20.1771 19.1615 19.6694 19.6692C19.1617 20.1769 18.3386 20.1769 17.8309 19.6692L12.0002 13.8384L6.16943 19.6692C5.66175 20.1769 4.83864 20.1769 4.33096 19.6692C3.82328 19.1615 3.82328 18.3384 4.33096 17.8307L10.1617 12L4.33096 6.16919C3.82328 5.66151 3.82328 4.83839 4.33096 4.33071Z" fill="white"/>
</svg>