<svg width="20" height="20" viewBox="0 0 20 20" fill="none" xmlns="http://www.w3.org/2000/svg">
<path d="M11.25 4.58333C12.1667 4.58333 12.9167 3.83333 12.9167 2.91667C12.9167 2 12.1667 1.25 11.25 1.25C10.3333 1.25 9.58333 2 9.58333 2.91667C9.58333 3.83333 10.3333 4.58333 11.25 4.58333ZM8.16667 7.41667L5.83333 19.1667H7.58333L9.08333 12.5L10.8333 14.1667V19.1667H12.5V12.9167L10.75 11.25L11.25 8.75C12.3333 10 14 10.8333 15.8333 10.8333V9.16667C14.25 9.16667 12.9167 8.33333 12.25 7.16667L11.4167 5.83333C11.1916 5.47347 10.8458 5.20542 10.4412 5.07717C10.0366 4.94892 9.5996 4.96883 9.20833 5.13333L5 6.91667V10.8333H6.66667V8L8.16667 7.41667Z" fill="current"/>
</svg>
