<svg width="24" height="24" viewBox="0 0 24 24" fill="none" xmlns="http://www.w3.org/2000/svg">
<path d="M13.25 6.58333C14.1667 6.58333 14.9167 5.83333 14.9167 4.91667C14.9167 4 14.1667 3.25 13.25 3.25C12.3333 3.25 11.5833 4 11.5833 4.91667C11.5833 5.83333 12.3333 6.58333 13.25 6.58333ZM10.1667 9.41667L7.83333 21.1667H9.58333L11.0833 14.5L12.8333 16.1667V21.1667H14.5V14.9167L12.75 13.25L13.25 10.75C14.3333 12 16 12.8333 17.8333 12.8333V11.1667C16.25 11.1667 14.9167 10.3333 14.25 9.16667L13.4167 7.83333C13.1916 7.47347 12.8458 7.20542 12.4412 7.07717C12.0366 6.94892 11.5996 6.96883 11.2083 7.13333L7 8.91667V12.8333H8.66667V10L10.1667 9.41667Z" fill="#9099A5"/>
</svg>
